<svg width="60" height="60" viewBox="0 0 60 60" fill="none" xmlns="http://www.w3.org/2000/svg">
<g filter="url(#filter0_d_2140_3197)">
<rect x="8" y="4" width="44" height="44" rx="10" fill="#F59E0B"/>
<path d="M28.4325 18.5383L20.6683 31.4999C20.5082 31.7772 20.4235 32.0915 20.4226 32.4116C20.4217 32.7317 20.5047 33.0465 20.6632 33.3246C20.8217 33.6027 21.0503 33.8345 21.3262 33.9968C21.6021 34.1592 21.9157 34.2464 22.2358 34.2499H37.7641C38.0842 34.2464 38.3978 34.1592 38.6737 33.9968C38.9496 33.8345 39.1782 33.6027 39.3367 33.3246C39.4953 33.0465 39.5782 32.7317 39.5773 32.4116C39.5764 32.0915 39.4917 31.7772 39.3316 31.4999L31.5675 18.5383C31.404 18.2689 31.174 18.0461 30.8994 17.8916C30.6248 17.737 30.315 17.6558 30 17.6558C29.6849 17.6558 29.3751 17.737 29.1005 17.8916C28.826 18.0461 28.5959 18.2689 28.4325 18.5383Z" stroke="white" stroke-width="2.01667" stroke-linecap="round" stroke-linejoin="round"/>
<path d="M30 23.25V26.9167" stroke="white" stroke-width="2.01667" stroke-linecap="round" stroke-linejoin="round"/>
<path d="M30 30.5833H30.01" stroke="white" stroke-width="2.01667" stroke-linecap="round" stroke-linejoin="round"/>
</g>
<defs>
<filter id="filter0_d_2140_3197" x="0" y="0" width="60" height="60" filterUnits="userSpaceOnUse" color-interpolation-filters="sRGB">
<feFlood flood-opacity="0" result="BackgroundImageFix"/>
<feColorMatrix in="SourceAlpha" type="matrix" values="0 0 0 0 0 0 0 0 0 0 0 0 0 0 0 0 0 0 127 0" result="hardAlpha"/>
<feOffset dy="4"/>
<feGaussianBlur stdDeviation="4"/>
<feColorMatrix type="matrix" values="0 0 0 0 0.960784 0 0 0 0 0.619608 0 0 0 0 0.0431373 0 0 0 0.3 0"/>
<feBlend mode="normal" in2="BackgroundImageFix" result="effect1_dropShadow_2140_3197"/>
<feBlend mode="normal" in="SourceGraphic" in2="effect1_dropShadow_2140_3197" result="shape"/>
</filter>
</defs>
</svg>
