<svg width="16" height="16" viewBox="0 0 16 16" fill="none" xmlns="http://www.w3.org/2000/svg">
<g opacity="0.65" clip-path="url(#clip0_0_44)">
<path d="M8 10C9.10457 10 10 9.10457 10 8C10 6.89543 9.10457 6 8 6C6.89543 6 6 6.89543 6 8C6 9.10457 6.89543 10 8 10Z" stroke="white" stroke-width="1.2"/>
<path d="M12.9333 9.99996C12.8446 10.201 12.8181 10.4241 12.8573 10.6404C12.8965 10.8566 12.9996 11.0562 13.1533 11.2133L13.1933 11.2533C13.3172 11.3772 13.4155 11.5242 13.4825 11.6861C13.5496 11.848 13.5841 12.0214 13.5841 12.1966C13.5841 12.3718 13.5496 12.5453 13.4825 12.7072C13.4155 12.869 13.3172 13.0161 13.1933 13.14C13.0695 13.2638 12.9224 13.3621 12.7605 13.4292C12.5987 13.4962 12.4252 13.5307 12.25 13.5307C12.0748 13.5307 11.9013 13.4962 11.7395 13.4292C11.5776 13.3621 11.4305 13.2638 11.3067 13.14L11.2667 13.1C11.1095 12.9463 10.91 12.8432 10.6937 12.804C10.4775 12.7647 10.2544 12.7912 10.0533 12.88C9.85615 12.9645 9.68799 13.1048 9.56954 13.2836C9.45109 13.4625 9.38752 13.6721 9.38667 13.8866V14C9.38667 14.3536 9.24619 14.6927 8.99614 14.9428C8.74609 15.1928 8.40695 15.3333 8.05333 15.3333C7.69971 15.3333 7.36057 15.1928 7.11052 14.9428C6.86048 14.6927 6.72 14.3536 6.72 14V13.94C6.71484 13.7193 6.64341 13.5053 6.51501 13.3258C6.3866 13.1462 6.20716 13.0095 6 12.9333C5.79892 12.8445 5.57587 12.8181 5.35961 12.8573C5.14334 12.8965 4.94379 12.9996 4.78667 13.1533L4.74667 13.1933C4.49648 13.4435 4.15715 13.584 3.80333 13.584C3.44951 13.584 3.11019 13.4435 2.86 13.1933C2.60981 12.9431 2.46926 12.6038 2.46926 12.25C2.46926 11.8961 2.60981 11.5568 2.86 11.3066L2.9 11.2666C3.06487 11.1052 3.17483 10.8961 3.21431 10.6688C3.25379 10.4415 3.2208 10.2075 3.12 9.99996C3.03549 9.80278 2.89517 9.63461 2.71631 9.51616C2.53745 9.39771 2.32786 9.33415 2.11333 9.33329H2C1.64638 9.33329 1.30724 9.19282 1.05719 8.94277C0.807142 8.69272 0.666666 8.35358 0.666666 7.99996C0.666666 7.64634 0.807142 7.3072 1.05719 7.05715C1.30724 6.8071 1.64638 6.66663 2 6.66663H2.06C2.27452 6.66577 2.48412 6.60221 2.66298 6.48375C2.84184 6.3653 2.98216 6.19714 3.06667 5.99996C3.15541 5.79888 3.18188 5.57583 3.14267 5.35957C3.10346 5.1433 3.00036 4.94375 2.84667 4.78663L2.80667 4.74663C2.68279 4.62275 2.58452 4.47568 2.51748 4.31382C2.45043 4.15196 2.41592 3.97849 2.41592 3.80329C2.41592 3.6281 2.45043 3.45462 2.51748 3.29276C2.58452 3.13091 2.68279 2.98384 2.80667 2.85996C2.93055 2.73608 3.07761 2.63781 3.23947 2.57077C3.40133 2.50372 3.57481 2.46922 3.75 2.46922C3.92519 2.46922 4.09867 2.50372 4.26053 2.57077C4.42239 2.63781 4.56945 2.73608 4.69333 2.85996L4.73333 2.89996C4.89472 3.06483 5.10387 3.17479 5.33118 3.21427C5.55849 3.25375 5.79247 3.22076 6 3.11996C6.19718 3.03545 6.36534 2.89513 6.48379 2.71627C6.60225 2.53741 6.66581 2.32782 6.66667 2.11329V1.99996C6.66667 1.64634 6.80714 1.3072 7.05719 1.05715C7.30724 0.807102 7.64638 0.666626 8 0.666626C8.35362 0.666626 8.69276 0.807102 8.94281 1.05715C9.19286 1.3072 9.33333 1.64634 9.33333 1.99996V2.05996C9.33419 2.27448 9.39775 2.48408 9.5162 2.66294C9.63465 2.8418 9.80282 2.98212 10 3.06663C10.2011 3.15537 10.4241 3.18184 10.6404 3.14263C10.8567 3.10342 11.0562 3.00032 11.2133 2.84663L11.2533 2.80663C11.5035 2.55644 11.8428 2.41588 12.1967 2.41588C12.3719 2.41588 12.5453 2.45039 12.7072 2.51743C12.8691 2.58448 13.0161 2.68275 13.14 2.80663C13.2639 2.93051 13.3621 3.07757 13.4292 3.23943C13.4962 3.40129 13.5307 3.57477 13.5307 3.74996C13.5307 3.92515 13.4962 4.09863 13.4292 4.26049C13.3621 4.42235 13.2639 4.56941 13.14 4.69329L13.1 4.73329C12.9438 4.9008 12.8438 5.11288 12.8139 5.33995C12.7841 5.56702 12.8258 5.79775 12.9333 5.99996C13.0178 6.19714 13.1582 6.3653 13.337 6.48375C13.5159 6.60221 13.7255 6.66577 13.94 6.66663H14C14.3536 6.66663 14.6928 6.8071 14.9428 7.05715C15.1929 7.3072 15.3333 7.64634 15.3333 7.99996C15.3333 8.35358 15.1929 8.69272 14.9428 8.94277C14.6928 9.19282 14.3536 9.33329 14 9.33329H13.94C13.7255 9.33415 13.5159 9.39771 13.337 9.51616C13.1582 9.63461 13.0178 9.80278 12.9333 9.99996Z" stroke="white" stroke-width="1.2"/>
</g>
<defs>
<clipPath id="clip0_0_44">
<rect width="16" height="16" fill="white"/>
</clipPath>
</defs>
</svg>
