<svg width="16" height="16" viewBox="0 0 16 16" fill="none" xmlns="http://www.w3.org/2000/svg">
<g opacity="0.65" clip-path="url(#clip0_0_38)">
<path d="M8 1.33337C8.35362 1.33337 8.69276 1.47385 8.94281 1.7239C9.19286 1.97395 9.33333 2.31309 9.33333 2.66671C9.33333 3.16004 9.06667 3.59337 8.66667 3.82004V4.66671H9.33333C10.571 4.66671 11.758 5.15837 12.6332 6.03354C13.5083 6.90871 14 8.0957 14 9.33337V10C14.3536 10 14.6928 10.1405 14.9428 10.3906C15.1929 10.6406 15.3333 10.9798 15.3333 11.3334C15.3333 11.687 15.1929 12.0261 14.9428 12.2762C14.6928 12.5262 14.3536 12.6667 14 12.6667V13.3334C14 13.8638 13.7893 14.3725 13.4142 14.7476C13.0391 15.1227 12.5304 15.3334 12 15.3334H4C3.46957 15.3334 2.96086 15.1227 2.58579 14.7476C2.21071 14.3725 2 13.8638 2 13.3334V12.6667C1.64638 12.6667 1.30724 12.5262 1.05719 12.2762C0.807142 12.0261 0.666666 11.687 0.666666 11.3334C0.666666 10.9798 0.807142 10.6406 1.05719 10.3906C1.30724 10.1405 1.64638 10 2 10V9.33337C2 8.0957 2.49166 6.90871 3.36683 6.03354C4.242 5.15837 5.42899 4.66671 6.66667 4.66671H7.33333V3.82004C7.07982 3.67298 6.88182 3.4465 6.76996 3.17561C6.6581 2.90472 6.63861 2.60452 6.71451 2.32144C6.7904 2.03836 6.95745 1.78817 7.18981 1.60956C7.42218 1.43096 7.70692 1.33389 8 1.33337Z" stroke="white" stroke-width="1.2" stroke-linejoin="round"/>
<path d="M6 10.3334C6.55228 10.3334 7 9.88566 7 9.33337C7 8.78109 6.55228 8.33337 6 8.33337C5.44772 8.33337 5 8.78109 5 9.33337C5 9.88566 5.44772 10.3334 6 10.3334Z" fill="white"/>
<path d="M10 10.3334C10.5523 10.3334 11 9.88566 11 9.33337C11 8.78109 10.5523 8.33337 10 8.33337C9.44772 8.33337 9 8.78109 9 9.33337C9 9.88566 9.44772 10.3334 10 10.3334Z" fill="white"/>
</g>
<defs>
<clipPath id="clip0_0_38">
<rect width="16" height="16" fill="white"/>
</clipPath>
</defs>
</svg>
