<svg width="48" height="48" viewBox="0 0 48 48" fill="none" xmlns="http://www.w3.org/2000/svg">
<rect width="48" height="48" rx="10" fill="#F6FFED"/>
<path d="M16 16H32C33.1 16 34 16.9 34 18V27C34 28.1 33.1 29 32 29H25L20 33V29H16C14.9 29 14 28.1 14 27V18C14 16.9 14.9 16 16 16Z" fill="#52C41A"/>
<path d="M20.2998 21C21.0178 21 21.5996 21.5818 21.5996 22.2998C21.5996 23.0178 21.0178 23.5996 20.2998 23.5996C19.5819 23.5995 19 23.0177 19 22.2998C19 21.5819 19.5819 21.0001 20.2998 21ZM24.2998 21C25.0178 21 25.5996 21.5818 25.5996 22.2998C25.5996 23.0178 25.0178 23.5996 24.2998 23.5996C23.5819 23.5995 23 23.0177 23 22.2998C23 21.5819 23.5819 21.0001 24.2998 21ZM28.2998 21C29.0178 21 29.5996 21.5818 29.5996 22.2998C29.5996 23.0178 29.0178 23.5996 28.2998 23.5996C27.5819 23.5995 27 23.0177 27 22.2998C27 21.5819 27.5819 21.0001 28.2998 21Z" fill="white"/>
</svg>
