<svg height="400" viewbox="0 0 800 400" width="800" xmlns="http://www.w3.org/2000/svg" xmlns:xlink="http://www.w3.org/1999/xlink"><rect fill="#f5f5f5" x="0" y="0"></rect><rect fill="#ffffff" stroke="#000" x="50" y="10"></rect><text fill="#000" font-size="16" font-weight="bold" x="60" y="30">页面加载</text><rect fill="#ffffff" stroke="#000" x="250" y="10"></rect><text fill="#000" font-size="16" font-weight="bold" x="260" y="30">积分池余额区块</text><rect fill="#ffffff" stroke="#000" x="450" y="10"></rect><text fill="#000" font-size="16" font-weight="bold" x="460" y="30">积分消耗规则区块</text><rect fill="#ffffff" stroke="#000" x="250" y="80"></rect><text fill="#000" font-size="16" font-weight="bold" x="260" y="100">用户查看余额</text><text fill="#333" font-size="12" x="300" y="120">显示总积分卡片（82,400积分）</text><text fill="#333" font-size="12" x="300" y="135">显示可用积分卡片（2/3次）</text><rect fill="#ffffff" stroke="#000" x="250" y="150"></rect><text fill="#000" font-size="16" font-weight="bold" x="260" y="170">用户点击规则速查</text><rect fill="#ffffff" stroke="#000" x="450" y="150"></rect><text fill="#000" font-size="16" font-weight="bold" x="460" y="170">展开规则列表</text><rect fill="#ffffff" stroke="#000" x="250" y="220"></rect><text fill="#000" font-size="16" font-weight="bold" x="260" y="240">消耗明细区块</text><text fill="#333" font-size="12" x="300" y="260">筛选行（账号、日期）</text><text fill="#333" font-size="12" x="300" y="275">数据表格（时间、操作账号、内容类型、消耗、是否免费）</text><text fill="#333" font-size="12" x="300" y="290">分页器</text><rect fill="#ffffff" stroke="#000" x="250" y="300"></rect><text fill="#000" font-size="16" font-weight="bold" x="260" y="320">用户筛选/分页</text><text fill="#333" font-size="12" x="300" y="340">刷新表格数据</text><line stroke="#666" stroke-width="2" x1="150" x2="250" y1="50" y2="50"></line><line stroke="#666" stroke-width="2" x1="350" x2="450" y1="50" y2="50"></line><line stroke="#666" stroke-width="2" x1="150" x2="250" y1="120" y2="120"></line><line stroke="#666" stroke-width="2" x1="350" x2="450" y1="180" y2="180"></line><line stroke="#666" stroke-width="2" x1="150" x2="250" y1="240" y2="240"></line><line stroke="#666" stroke-width="2" x1="150" x2="250" y1="330" y2="330"></line></svg>
