<svg width="22" height="22" viewBox="0 0 22 22" fill="none" xmlns="http://www.w3.org/2000/svg">
<g clip-path="url(#clip0_308_47)">
<path d="M18 0H4C1.79086 0 0 1.79086 0 4V18C0 20.2091 1.79086 22 4 22H18C20.2091 22 22 20.2091 22 18V4C22 1.79086 20.2091 0 18 0Z" fill="black"/>
<path d="M15.2 6.19999C14.5415 6.05606 13.9453 5.70786 13.4963 5.20506C13.0474 4.70226 12.7687 4.07053 12.7 3.39999H10.4V12.5C10.3504 12.9685 10.1286 13.4018 9.77746 13.716C9.42637 14.0301 8.9711 14.2026 8.5 14.2C7.99609 14.2 7.51282 13.9998 7.1565 13.6435C6.80018 13.2872 6.6 12.8039 6.6 12.3C6.6 11.7961 6.80018 11.3128 7.1565 10.9565C7.51282 10.6002 7.99609 10.4 8.5 10.4C8.68 10.4 8.86 10.43 9.02 10.47V8.19999C8.84745 8.17924 8.67379 8.16923 8.5 8.16999C7.38609 8.16999 6.3178 8.61249 5.53015 9.40015C4.7425 10.1878 4.3 11.2561 4.3 12.37C4.3 13.4839 4.7425 14.5522 5.53015 15.3398C6.3178 16.1275 7.38609 16.57 8.5 16.57C9.61391 16.57 10.6822 16.1275 11.4698 15.3398C12.2575 14.5522 12.7 13.4839 12.7 12.37V8.49999C13.6336 9.16439 14.7543 9.51461 15.9 9.49999V7.19999C15.67 7.158 15.4454 7.09093 15.23 6.99999L15.2 6.19999Z" fill="white"/>
</g>
<defs>
<clipPath id="clip0_308_47">
<rect width="22" height="22" fill="white"/>
</clipPath>
</defs>
</svg>
