<svg width="80" height="80" viewBox="0 0 80 80" fill="none" xmlns="http://www.w3.org/2000/svg">
<g filter="url(#filter0_d_2100_2418)">
<rect x="12" y="6" width="56" height="56" rx="12" fill="#F59E0B"/>
<path d="M50.5 37.5C50.5 38.1188 50.2542 38.7123 49.8166 39.1499C49.379 39.5875 48.7855 39.8333 48.1667 39.8333H34.1667L29.5 44.5V25.8333C29.5 25.2145 29.7458 24.621 30.1834 24.1834C30.621 23.7458 31.2145 23.5 31.8333 23.5H48.1667C48.7855 23.5 49.379 23.7458 49.8166 24.1834C50.2542 24.621 50.5 25.2145 50.5 25.8333V37.5Z" stroke="white" stroke-width="2.33333" stroke-linecap="round" stroke-linejoin="round"/>
<path d="M36.5 32.6C37.0154 32.6 37.4333 32.1821 37.4333 31.6667C37.4333 31.1512 37.0154 30.7333 36.5 30.7333C35.9845 30.7333 35.5667 31.1512 35.5667 31.6667C35.5667 32.1821 35.9845 32.6 36.5 32.6Z" fill="white"/>
<path d="M40 32.6C40.5154 32.6 40.9333 32.1821 40.9333 31.6667C40.9333 31.1512 40.5154 30.7333 40 30.7333C39.4845 30.7333 39.0667 31.1512 39.0667 31.6667C39.0667 32.1821 39.4845 32.6 40 32.6Z" fill="white"/>
<path d="M43.5 32.6C44.0154 32.6 44.4333 32.1821 44.4333 31.6667C44.4333 31.1512 44.0154 30.7333 43.5 30.7333C42.9845 30.7333 42.5667 31.1512 42.5667 31.6667C42.5667 32.1821 42.9845 32.6 43.5 32.6Z" fill="white"/>
</g>
<defs>
<filter id="filter0_d_2100_2418" x="0" y="0" width="80" height="80" filterUnits="userSpaceOnUse" color-interpolation-filters="sRGB">
<feFlood flood-opacity="0" result="BackgroundImageFix"/>
<feColorMatrix in="SourceAlpha" type="matrix" values="0 0 0 0 0 0 0 0 0 0 0 0 0 0 0 0 0 0 127 0" result="hardAlpha"/>
<feOffset dy="6"/>
<feGaussianBlur stdDeviation="6"/>
<feColorMatrix type="matrix" values="0 0 0 0 0.960784 0 0 0 0 0.619608 0 0 0 0 0.0431373 0 0 0 0.25 0"/>
<feBlend mode="normal" in2="BackgroundImageFix" result="effect1_dropShadow_2100_2418"/>
<feBlend mode="normal" in="SourceGraphic" in2="effect1_dropShadow_2100_2418" result="shape"/>
</filter>
</defs>
</svg>
