<svg xmlns="http://www.w3.org/2000/svg" viewBox="0 0 1000 1600">
  <title>标签库管理 - 交互泳道图</title>
  <defs>
    <marker id="arrowhead" markerWidth="10" markerHeight="7" refX="9" refY="3.5" orient="auto">
      <polygon points="0 0, 10 3.5, 0 7" fill="#666"/>
    </marker>
    <marker id="arrowhead-success" markerWidth="10" markerHeight="7" refX="9" refY="3.5" orient="auto">
      <polygon points="0 0, 10 3.5, 0 7" fill="#52c41a"/>
    </marker>
    <marker id="arrowhead-error" markerWidth="10" markerHeight="7" refX="9" refY="3.5" orient="auto">
      <polygon points="0 0, 10 3.5, 0 7" fill="#ff4d4f"/>
    </marker>
  </defs>

  <!-- 背景 -->
  <rect width="1000" height="1600" fill="#fafafa"/>

  <!-- 标题 -->
  <text x="500" y="25" text-anchor="middle" font-size="16" font-weight="bold" fill="#333">标签库管理 - 交互泳道图</text>

  <!-- 泳道 -->
  <!-- 用户 -->
  <rect x="10" y="45" width="160" height="1545" fill="#e6f7ff" stroke="#1890ff" stroke-width="2"/>
  <text x="90" y="65" text-anchor="middle" font-size="12" font-weight="bold" fill="#1890ff">用户</text>

  <!-- 前端组件 -->
  <rect x="180" y="45" width="280" height="1545" fill="#f6ffed" stroke="#52c41a" stroke-width="2"/>
  <text x="320" y="65" text-anchor="middle" font-size="12" font-weight="bold" fill="#52c41a">前端组件</text>

  <!-- 后端API -->
  <rect x="470" y="45" width="240" height="1545" fill="#fff7e6" stroke="#fa8c16" stroke-width="2"/>
  <text x="590" y="65" text-anchor="middle" font-size="12" font-weight="bold" fill="#fa8c16">后端 API</text>

  <!-- 状态管理 -->
  <rect x="720" y="45" width="270" height="1545" fill="#f9f0ff" stroke="#722ed1" stroke-width="2"/>
  <text x="855" y="65" text-anchor="middle" font-size="12" font-weight="bold" fill="#722ed1">状态管理</text>

  <!-- ========== A. 进入标签库页面 ========== -->
  <line x1="10" y1="90" x2="990" y2="90" stroke="#d9d9d9" stroke-width="1" stroke-dasharray="5,5"/>
  <text x="15" y="85" font-size="11" fill="#8c8c8c">A. 进入标签库页面</text>

  <!-- 步骤1: 进入页面 -->
  <circle cx="90" cy="120" r="18" fill="#1890ff" stroke="#096dd9" stroke-width="2"/>
  <text x="90" y="125" text-anchor="middle" font-size="10" fill="white">1</text>

  <rect x="200" y="105" width="120" height="30" rx="5" fill="#b7eb8f" stroke="#52c41a" stroke-width="2"/>
  <text x="260" y="125" text-anchor="middle" font-size="10">TagsPage</text>

  <line x1="108" y1="120" x2="200" y2="120" stroke="#666" stroke-width="1.5" marker-end="url(#arrowhead)"/>

  <!-- 步骤2: 显示骨架屏 -->
  <circle cx="90" cy="165" r="18" fill="#52c41a" stroke="#389e0d" stroke-width="2"/>
  <text x="90" y="170" text-anchor="middle" font-size="10" fill="white">2</text>

  <rect x="200" y="150" width="120" height="30" rx="5" fill="#b7eb8f" stroke="#52c41a" stroke-width="2"/>
  <text x="260" y="170" text-anchor="middle" font-size="10">TagList</text>

  <line x1="260" y1="135" x2="260" y2="150" stroke="#666" stroke-width="1.5" marker-end="url(#arrowhead)"/>

  <!-- 步骤3: 调用API -->
  <circle cx="90" cy="210" r="18" fill="#fa8c16" stroke="#d48806" stroke-width="2"/>
  <text x="90" y="215" text-anchor="middle" font-size="10" fill="white">3</text>

  <rect x="490" y="195" width="160" height="30" rx="5" fill="#ffe58f" stroke="#fa8c16" stroke-width="2"/>
  <text x="570" y="215" text-anchor="middle" font-size="10">GET /api/tags</text>

  <line x1="260" y1="180" x2="490" y2="210" stroke="#666" stroke-width="1.5" marker-end="url(#arrowhead)"/>

  <!-- 步骤4: 渲染列表 -->
  <circle cx="90" cy="255" r="18" fill="#52c41a" stroke="#389e0d" stroke-width="2"/>
  <text x="90" y="260" text-anchor="middle" font-size="10" fill="white">4</text>

  <rect x="200" y="240" width="120" height="30" rx="5" fill="#b7eb8f" stroke="#52c41a" stroke-width="2"/>
  <text x="260" y="260" text-anchor="middle" font-size="10">TagList</text>

  <line x1="570" y1="225" x2="320" y2="255" stroke="#52c41a" stroke-width="1.5" marker-end="url(#arrowhead-success)"/>

  <!-- 步骤5: 渲染分页 -->
  <circle cx="90" cy="300" r="18" fill="#52c41a" stroke="#389e0d" stroke-width="2"/>
  <text x="90" y="305" text-anchor="middle" font-size="10" fill="white">5</text>

  <rect x="200" y="285" width="120" height="30" rx="5" fill="#b7eb8f" stroke="#52c41a" stroke-width="2"/>
  <text x="260" y="305" text-anchor="middle" font-size="10">Pagination</text>

  <line x1="260" y1="270" x2="260" y2="285" stroke="#666" stroke-width="1.5" marker-end="url(#arrowhead)"/>

  <!-- ========== B. 标签列表筛选 ========== -->
  <line x1="10" y1="370" x2="990" y2="370" stroke="#d9d9d9" stroke-width="1" stroke-dasharray="5,5"/>
  <text x="15" y="365" font-size="11" fill="#8c8c8c">B. 标签列表筛选</text>

  <circle cx="90" cy="400" r="18" fill="#1890ff" stroke="#096dd9" stroke-width="2"/>
  <text x="90" y="405" text-anchor="middle" font-size="10" fill="white">1</text>

  <rect x="200" y="385" width="120" height="30" rx="5" fill="#ffccc7" stroke="#ff4d4f" stroke-width="2"/>
  <text x="260" y="405" text-anchor="middle" font-size="10">选择筛选条件</text>

  <line x1="108" y1="400" x2="200" y2="400" stroke="#666" stroke-width="1.5" marker-end="url(#arrowhead)"/>

  <circle cx="90" cy="445" r="18" fill="#fa8c16" stroke="#d48806" stroke-width="2"/>
  <text x="90" y="450" text-anchor="middle" font-size="10" fill="white">2</text>

  <rect x="490" y="430" width="160" height="30" rx="5" fill="#ffe58f" stroke="#fa8c16" stroke-width="2"/>
  <text x="570" y="450" text-anchor="middle" font-size="10">GET /api/tags</text>

  <line x1="260" y1="415" x2="490" y2="445" stroke="#666" stroke-width="1.5" marker-end="url(#arrowhead)"/>

  <circle cx="90" cy="490" r="18" fill="#52c41a" stroke="#389e0d" stroke-width="2"/>
  <text x="90" y="495" text-anchor="middle" font-size="10" fill="white">3</text>

  <rect x="200" y="475" width="120" height="30" rx="5" fill="#b7eb8f" stroke="#52c41a" stroke-width="2"/>
  <text x="260" y="495" text-anchor="middle" font-size="10">刷新列表</text>

  <line x1="570" y1="460" x2="320" y2="490" stroke="#52c41a" stroke-width="1.5" marker-end="url(#arrowhead-success)"/>

  <!-- ========== C. 标签列表分页 ========== -->
  <line x1="10" y1="560" x2="990" y2="560" stroke="#d9d9d9" stroke-width="1" stroke-dasharray="5,5"/>
  <text x="15" y="555" font-size="11" fill="#8c8c8c">C. 标签列表分页</text>

  <circle cx="90" cy="590" r="18" fill="#1890ff" stroke="#096dd9" stroke-width="2"/>
  <text x="90" y="595" text-anchor="middle" font-size="10" fill="white">1</text>

  <rect x="200" y="575" width="120" height="30" rx="5" fill="#ffccc7" stroke="#ff4d4f" stroke-width="2"/>
  <text x="260" y="595" text-anchor="middle" font-size="10">切换页码</text>

  <line x1="108" y1="590" x2="200" y2="590" stroke="#666" stroke-width="1.5" marker-end="url(#arrowhead)"/>

  <circle cx="90" cy="635" r="18" fill="#fa8c16" stroke="#d48806" stroke-width="2"/>
  <text x="90" y="640" text-anchor="middle" font-size="10" fill="white">2</text>

  <rect x="490" y="620" width="160" height="30" rx="5" fill="#ffe58f" stroke="#fa8c16" stroke-width="2"/>
  <text x="570" y="640" text-anchor="middle" font-size="10">GET /api/tags</text>

  <line x1="260" y1="605" x2="490" y2="635" stroke="#666" stroke-width="1.5" marker-end="url(#arrowhead)"/>

  <circle cx="90" cy="680" r="18" fill="#52c41a" stroke="#389e0d" stroke-width="2"/>
  <text x="90" y="685" text-anchor="middle" font-size="10" fill="white">3</text>

  <rect x="200" y="665" width="120" height="30" rx="5" fill="#b7eb8f" stroke="#52c41a" stroke-width="2"/>
  <text x="260" y="685" text-anchor="middle" font-size="10">渲染新页数据</text>

  <line x1="570" y1="650" x2="320" y2="680" stroke="#52c41a" stroke-width="1.5" marker-end="url(#arrowhead-success)"/>

  <!-- ========== D. 新建标签 ========== -->
  <line x1="10" y1="750" x2="990" y2="750" stroke="#d9d9d9" stroke-width="1" stroke-dasharray="5,5"/>
  <text x="15" y="745" font-size="11" fill="#8c8c8c">D. 新建标签</text>

  <circle cx="90" cy="780" r="18" fill="#1890ff" stroke="#096dd9" stroke-width="2"/>
  <text x="90" y="785" text-anchor="middle" font-size="10" fill="white">1</text>

  <rect x="200" y="765" width="120" height="30" rx="5" fill="#ffccc7" stroke="#ff4d4f" stroke-width="2"/>
  <text x="260" y="785" text-anchor="middle" font-size="10">点击新建标签</text>

  <line x1="108" y1="780" x2="200" y2="780" stroke="#666" stroke-width="1.5" marker-end="url(#arrowhead)"/>

  <circle cx="90" cy="825" r="18" fill="#52c41a" stroke="#389e0d" stroke-width="2"/>
  <text x="90" y="830" text-anchor="middle" font-size="10" fill="white">2</text>

  <rect x="200" y="810" width="140" height="30" rx="5" fill="#b7eb8f" stroke="#52c41a" stroke-width="2"/>
  <text x="270" y="830" text-anchor="middle" font-size="10">CreateTagModal</text>

  <line x1="260" y1="795" x2="260" y2="810" stroke="#666" stroke-width="1.5" marker-end="url(#arrowhead)"/>

  <circle cx="90" cy="870" r="18" fill="#d9d7fb" stroke="#722ed1" stroke-width="2"/>
  <text x="90" y="875" text-anchor="middle" font-size="10" fill="white">3</text>

  <rect x="200" y="855" width="120" height="30" rx="5" fill="#d9d7fb" stroke="#722ed1" stroke-width="2"/>
  <text x="260" y="875" text-anchor="middle" font-size="10">选择分类</text>

  <line x1="270" y1="840" x2="270" y2="855" stroke="#666" stroke-width="1.5" marker-end="url(#arrowhead)"/>

  <circle cx="90" cy="915" r="18" fill="#d9d7fb" stroke="#722ed1" stroke-width="2"/>
  <text x="90" y="920" text-anchor="middle" font-size="10" fill="white">4</text>

  <rect x="200" y="900" width="120" height="30" rx="5" fill="#d9d7fb" stroke="#722ed1" stroke-width="2"/>
  <text x="260" y="920" text-anchor="middle" font-size="10">选择平台</text>

  <line x1="270" y1="885" x2="270" y2="900" stroke="#666" stroke-width="1.5" marker-end="url(#arrowhead)"/>

  <circle cx="90" cy="960" r="18" fill="#d9d7fb" stroke="#722ed1" stroke-width="2"/>
  <text x="90" y="965" text-anchor="middle" font-size="10" fill="white">5</text>

  <rect x="200" y="945" width="120" height="30" rx="5" fill="#d9d7fb" stroke="#722ed1" stroke-width="2"/>
  <text x="260" y="965" text-anchor="middle" font-size="10">输入标签名称</text>

  <line x1="270" y1="930" x2="270" y2="945" stroke="#666" stroke-width="1.5" marker-end="url(#arrowhead)"/>

  <circle cx="90" cy="1005" r="18" fill="#1890ff" stroke="#096dd9" stroke-width="2"/>
  <text x="90" y="1010" text-anchor="middle" font-size="10" fill="white">6</text>

  <rect x="200" y="990" width="120" height="30" rx="5" fill="#ffccc7" stroke="#ff4d4f" stroke-width="2"/>
  <text x="260" y="1010" text-anchor="middle" font-size="10">点击确认</text>

  <line x1="270" y1="975" x2="270" y2="990" stroke="#666" stroke-width="1.5" marker-end="url(#arrowhead)"/>

  <circle cx="90" cy="1050" r="18" fill="#fa8c16" stroke="#d48806" stroke-width="2"/>
  <text x="90" y="1055" text-anchor="middle" font-size="10" fill="white">7</text>

  <rect x="490" y="1035" width="160" height="30" rx="5" fill="#ffe58f" stroke="#fa8c16" stroke-width="2"/>
  <text x="570" y="1055" text-anchor="middle" font-size="10">POST /api/tags</text>

  <line x1="260" y1="1020" x2="490" y2="1050" stroke="#666" stroke-width="1.5" marker-end="url(#arrowhead)"/>

  <circle cx="90" cy="1095" r="18" fill="#52c41a" stroke="#389e0d" stroke-width="2"/>
  <text x="90" y="1100" text-anchor="middle" font-size="10" fill="white">8</text>

  <rect x="200" y="1080" width="120" height="30" rx="5" fill="#b7eb8f" stroke="#52c41a" stroke-width="2"/>
  <text x="260" y="1100" text-anchor="middle" font-size="10">刷新列表</text>

  <line x1="570" y1="1065" x2="320" y2="1095" stroke="#52c41a" stroke-width="1.5" marker-end="url(#arrowhead-success)"/>

  <!-- ========== E. 编辑标签 ========== -->
  <line x1="10" y1="1170" x2="990" y2="1170" stroke="#d9d9d9" stroke-width="1" stroke-dasharray="5,5"/>
  <text x="15" y="1165" font-size="11" fill="#8c8c8c">E. 编辑标签</text>

  <circle cx="90" cy="1200" r="18" fill="#1890ff" stroke="#096dd9" stroke-width="2"/>
  <text x="90" y="1205" text-anchor="middle" font-size="10" fill="white">1</text>

  <rect x="200" y="1185" width="120" height="30" rx="5" fill="#ffccc7" stroke="#ff4d4f" stroke-width="2"/>
  <text x="260" y="1205" text-anchor="middle" font-size="10">点击编辑</text>

  <line x1="108" y1="1200" x2="200" y2="1200" stroke="#666" stroke-width="1.5" marker-end="url(#arrowhead)"/>

  <circle cx="90" cy="1245" r="18" fill="#52c41a" stroke="#389e0d" stroke-width="2"/>
  <text x="90" y="1250" text-anchor="middle" font-size="10" fill="white">2</text>

  <rect x="200" y="1230" width="140" height="30" rx="5" fill="#b7eb8f" stroke="#52c41a" stroke-width="2"/>
  <text x="270" y="1250" text-anchor="middle" font-size="10">EditTagModal</text>

  <line x1="260" y1="1215" x2="260" y2="1230" stroke="#666" stroke-width="1.5" marker-end="url(#arrowhead)"/>

  <circle cx="90" cy="1290" r="18" fill="#1890ff" stroke="#096dd9" stroke-width="2"/>
  <text x="90" y="1295" text-anchor="middle" font-size="10" fill="white">3</text>

  <rect x="200" y="1275" width="120" height="30" rx="5" fill="#ffccc7" stroke="#ff4d4f" stroke-width="2"/>
  <text x="260" y="1295" text-anchor="middle" font-size="10">点击确认</text>

  <line x1="270" y1="1260" x2="270" y2="1275" stroke="#666" stroke-width="1.5" marker-end="url(#arrowhead)"/>

  <circle cx="90" cy="1335" r="18" fill="#fa8c16" stroke="#d48806" stroke-width="2"/>
  <text x="90" y="1340" text-anchor="middle" font-size="10" fill="white">4</text>

  <rect x="490" y="1320" width="160" height="30" rx="5" fill="#ffe58f" stroke="#fa8c16" stroke-width="2"/>
  <text x="570" y="1340" text-anchor="middle" font-size="10">PUT /api/tags/{id}</text>

  <line x1="260" y1="1305" x2="490" y2="1335" stroke="#666" stroke-width="1.5" marker-end="url(#arrowhead)"/>

  <circle cx="90" cy="1380" r="18" fill="#52c41a" stroke="#389e0d" stroke-width="2"/>
  <text x="90" y="1385" text-anchor="middle" font-size="10" fill="white">5</text>

  <rect x="200" y="1365" width="120" height="30" rx="5" fill="#b7eb8f" stroke="#52c41a" stroke-width="2"/>
  <text x="260" y="1385" text-anchor="middle" font-size="10">刷新列表</text>

  <line x1="570" y1="1350" x2="320" y2="1380" stroke="#52c41a" stroke-width="1.5" marker-end="url(#arrowhead-success)"/>

  <!-- ========== F. 停用/启用标签 ========== -->
  <line x1="10" y1="1450" x2="990" y2="1450" stroke="#d9d9d9" stroke-width="1" stroke-dasharray="5,5"/>
  <text x="15" y="1445" font-size="11" fill="#8c8c8c">F. 停用/启用标签</text>

  <circle cx="90" cy="1480" r="18" fill="#1890ff" stroke="#096dd9" stroke-width="2"/>
  <text x="90" y="1485" text-anchor="middle" font-size="10" fill="white">1</text>

  <rect x="200" y="1465" width="120" height="30" rx="5" fill="#ffccc7" stroke="#ff4d4f" stroke-width="2"/>
  <text x="260" y="1485" text-anchor="middle" font-size="10">点击停用/启用</text>

  <line x1="108" y1="1480" x2="200" y2="1480" stroke="#666" stroke-width="1.5" marker-end="url(#arrowhead)"/>

  <circle cx="90" cy="1525" r="18" fill="#fa8c16" stroke="#d48806" stroke-width="2"/>
  <text x="90" y="1530" text-anchor="middle" font-size="10" fill="white">2</text>

  <rect x="490" y="1510" width="160" height="30" rx="5" fill="#ffe58f" stroke="#fa8c16" stroke-width="2"/>
  <text x="570" y="1530" text-anchor="middle" font-size="10">PUT /api/tags/{id}</text>

  <line x1="260" y1="1495" x2="490" y2="1525" stroke="#666" stroke-width="1.5" marker-end="url(#arrowhead)"/>

  <circle cx="90" cy="1570" r="18" fill="#52c41a" stroke="#389e0d" stroke-width="2"/>
  <text x="90" y="1575" text-anchor="middle" font-size="10" fill="white">3</text>

  <rect x="200" y="1555" width="120" height="30" rx="5" fill="#b7eb8f" stroke="#52c41a" stroke-width="2"/>
  <text x="260" y="1575" text-anchor="middle" font-size="10">刷新列表</text>

  <line x1="570" y1="1540" x2="320" y2="1570" stroke="#52c41a" stroke-width="1.5" marker-end="url(#arrowhead-success)"/>

  <!-- ========== 图例 ========== -->
  <rect x="750" y="1510" width="230" height="80" fill="#fafafa" stroke="#d9d9d9" rx="5"/>
  <text x="760" y="1528" font-size="10" font-weight="bold">图例</text>
  <circle cx="775" cy="1548" r="8" fill="#1890ff" stroke="#096dd9" stroke-width="2"/>
  <text x="790" y="1551" font-size="9">用户操作</text>
  <circle cx="775" cy="1573" r="8" fill="#52c41a" stroke="#389e0d" stroke-width="2"/>
  <text x="790" y="1576" font-size="9">前端成功</text>
  <line x1="820" y1="1548" x2="850" y2="1548" stroke="#666" stroke-width="1.5" marker-end="url(#arrowhead)"/>
  <text x="860" y="1551" font-size="9">正常流程</text>
  <line x1="820" y1="1573" x2="850" y2="1573" stroke="#52c41a" stroke-width="1.5" marker-end="url(#arrowhead-success)"/>
  <text x="860" y="1576" font-size="9">成功流程</text>
</svg>
