<svg xmlns="http://www.w3.org/2000/svg" viewBox="0 0 800 600">
  <defs>
    <marker id="arrowhead" markerWidth="10" markerHeight="7" refX="9" refY="3.5" orient="auto">
      <polygon points="0 0, 10 3.5, 0 7" fill="#667"/>
    </marker>
  </defs>
  <rect width="800" height="600" fill="#fafafa"/>
  <text x="400" y="30" text-anchor="middle" font-size="16" font-weight="bold" fill="#1f1f1f">图片生成页面 - 交互泳道图</text>
  <line x1="0" y1="50" x2="800" y2="50" stroke="#e0e0e0" stroke-width="1"/>
  <line x1="0" y1="550" x2="800" y2="550" stroke="#e0e0e0" stroke-width="1"/>
  <rect x="10" y="60" width="180" height="480" fill="#e8f4e8" stroke="#4caf50" stroke-width="2" rx="4"/>
  <text x="100" y="85" text-anchor="middle" font-size="13" font-weight="bold" fill="#2e7d32">用户</text>
  <rect x="200" y="60" width="180" height="480" fill="#e3f2fd" stroke="#2196f3" stroke-width="2" rx="4"/>
  <text x="290" y="85" text-anchor="middle" font-size="13" font-weight="bold" fill="#1565c0">图片生成页面</text>
  <rect x="390" y="60" width="180" height="480" fill="#fff3e0" stroke="#ff9800" stroke-width="2" rx="4"/>
  <text x="480" y="85" text-anchor="middle" font-size="13" font-weight="bold" fill="#e65100">AI 服务</text>
  <rect x="580" y="60" width="210" height="480" fill="#fce4ec" stroke="#e91e63" stroke-width="2" rx="4"/>
  <text x="685" y="85" text-anchor="middle" font-size="13" font-weight="bold" fill="#ad1457">结果展示</text>
  <circle cx="100" cy="120" r="12" fill="#4caf50"/>
  <text x="130" y="125" font-size="11" fill="#333">初始状态</text>
  <circle cx="290" cy="180" r="12" fill="#2196f3"/>
  <text x="320" y="185" font-size="11" fill="#333">填写配置</text>
  <line x1="100" y1="135" x2="290" y2="165" stroke="#667" stroke-width="1.5" marker-end="url(#arrowhead)"/>
  <text x="180" y="145" font-size="10" fill="#666">填写表单</text>
  <circle cx="290" cy="250" r="12" fill="#2196f3"/>
  <text x="320" y="255" font-size="11" fill="#333">提交生成</text>
  <line x1="290" y1="195" x2="290" y2="235" stroke="#667" stroke-width="1.5" marker-end="url(#arrowhead)"/>
  <text x="305" y="220" font-size="10" fill="#666">点击按钮</text>
  <circle cx="480" cy="320" r="12" fill="#ff9800"/>
  <text x="510" y="325" font-size="11" fill="#333">生成中</text>
  <line x1="290" y1="265" x2="480" y2="305" stroke="#667" stroke-width="1.5" marker-end="url(#arrowhead)"/>
  <text x="370" y="280" font-size="10" fill="#666">调用AI接口</text>
  <circle cx="480" cy="390" r="12" fill="#ff9800"/>
  <text x="510" y="395" font-size="11" fill="#333">轮询进度</text>
  <line x1="480" y1="335" x2="480" y2="375" stroke="#667" stroke-width="1.5" marker-end="url(#arrowhead)"/>
  <text x="495" y="360" font-size="10" fill="#666">更新进度</text>
  <circle cx="685" cy="460" r="12" fill="#e91e63"/>
  <text x="715" y="465" font-size="11" fill="#333">生成完成</text>
  <line x1="480" y1="405" x2="685" y2="445" stroke="#667" stroke-width="1.5" marker-end="url(#arrowhead)"/>
  <text x="570" y="420" font-size="10" fill="#666">生成完成</text>
  <line x1="100" y1="135" x2="685" y2="445" stroke="#667" stroke-width="1" stroke-dasharray="4,4" opacity="0.4"/>
  <text x="685" y="300" font-size="10" fill="#666">重新生成</text>
  <line x1="685" y1="475" x2="100" y2="520" stroke="#667" stroke-width="1.5" stroke-dasharray="4,2" marker-end="url(#arrowhead)"/>
  <text x="350" y="510" font-size="10" fill="#666" text-anchor="middle">去发布 / 去作品管理</text>
  <text x="300" y="580" font-size="10" fill="#999">页面: ImageGenerationPage (3096-2500)</text>
  <text x="480" y="580" font-size="10" fill="#999">组件: GeneratingModal (3130-2620)</text>
  <text x="660" y="580" font-size="10" fill="#999">组件: GenerationResultCard (3131-2723)</text>
</svg>
