<svg width="16" height="16" viewBox="0 0 16 16" fill="none" xmlns="http://www.w3.org/2000/svg">
<path d="M5 7V5C5 4.20435 5.31607 3.44129 5.87868 2.87868C6.44129 2.31607 7.20435 2 8 2C8.79565 2 9.55871 2.31607 10.1213 2.87868C10.6839 3.44129 11 4.20435 11 5V7" stroke="#8C8C8C" stroke-width="1.25" stroke-linecap="round"/>
<path d="M11.5 7H4.5C3.67157 7 3 7.67157 3 8.5V13C3 13.8284 3.67157 14.5 4.5 14.5H11.5C12.3284 14.5 13 13.8284 13 13V8.5C13 7.67157 12.3284 7 11.5 7Z" stroke="#8C8C8C" stroke-width="1.25"/>
<path d="M7.99998 11.4C8.49703 11.4 8.89998 10.997 8.89998 10.5C8.89998 10.0029 8.49703 9.59998 7.99998 9.59998C7.50292 9.59998 7.09998 10.0029 7.09998 10.5C7.09998 10.997 7.50292 11.4 7.99998 11.4Z" fill="#8C8C8C"/>
</svg>
