<svg width="16" height="16" viewBox="0 0 16 16" fill="none" xmlns="http://www.w3.org/2000/svg">
<path d="M11 1.5H5C3.89543 1.5 3 2.39543 3 3.5V12.5C3 13.6046 3.89543 14.5 5 14.5H11C12.1046 14.5 13 13.6046 13 12.5V3.5C13 2.39543 12.1046 1.5 11 1.5Z" stroke="#8C8C8C" stroke-width="1.25"/>
<path d="M6 3.5H10" stroke="#8C8C8C" stroke-linecap="round"/>
<path d="M8.00002 12.85C8.3314 12.85 8.60002 12.5814 8.60002 12.25C8.60002 11.9187 8.3314 11.65 8.00002 11.65C7.66865 11.65 7.40002 11.9187 7.40002 12.25C7.40002 12.5814 7.66865 12.85 8.00002 12.85Z" fill="#8C8C8C"/>
</svg>
