<svg width="14" height="14" viewBox="0 0 14 14" fill="none" xmlns="http://www.w3.org/2000/svg">
<g clip-path="url(#clip0_3000_1531)">
<path d="M7 13C10.3137 13 13 10.3137 13 7C13 3.68629 10.3137 1 7 1C3.68629 1 1 3.68629 1 7C1 10.3137 3.68629 13 7 13Z" stroke="#BFBFBF"/>
<path d="M6.99999 4.9C7.38659 4.9 7.69999 4.5866 7.69999 4.2C7.69999 3.8134 7.38659 3.5 6.99999 3.5C6.61339 3.5 6.29999 3.8134 6.29999 4.2C6.29999 4.5866 6.61339 4.9 6.99999 4.9Z" fill="#8C8C8C"/>
<path d="M7.60002 6.39999C7.60002 6.06862 7.3314 5.79999 7.00002 5.79999C6.66865 5.79999 6.40002 6.06862 6.40002 6.39999V9.69999C6.40002 10.0314 6.66865 10.3 7.00002 10.3C7.3314 10.3 7.60002 10.0314 7.60002 9.69999V6.39999Z" fill="#8C8C8C"/>
</g>
<defs>
<clipPath id="clip0_3000_1531">
<rect width="14" height="14" fill="white"/>
</clipPath>
</defs>
</svg>
