<svg width="40" height="40" viewBox="0 0 40 40" fill="none" xmlns="http://www.w3.org/2000/svg">
<rect x="0" y="0" width="40" height="40" rx="9" fill="#EB3C41"/>
<g transform="translate(-8, -4)">
<path d="M25.0833 26.0833C25.6359 26.0833 26.1658 25.8638 26.5565 25.4731C26.9472 25.0824 27.1667 24.5525 27.1667 24C27.1667 22.85 26.75 22.3333 26.3333 21.5C25.44 19.7142 26.1467 18.1217 28 16.5C28.4167 18.5833 29.6667 20.5833 31.3333 21.9167C33 23.25 33.8333 24.8333 33.8333 26.5C33.8333 27.266 33.6824 28.0246 33.3893 28.7323C33.0961 29.4401 32.6665 30.0831 32.1248 30.6248C31.5831 31.1665 30.94 31.5961 30.2323 31.8893C29.5246 32.1824 28.766 32.3333 28 32.3333C27.2339 32.3333 26.4754 32.1824 25.7677 31.8893C25.0599 31.5961 24.4169 31.1665 23.8752 30.6248C23.3335 30.0831 22.9038 29.4401 22.6107 28.7323C22.3175 28.0246 22.1667 27.266 22.1667 26.5C22.1667 25.5392 22.5275 24.5883 23 24C23 24.5525 23.2195 25.0824 23.6102 25.4731C24.0009 25.8638 24.5308 26.0833 25.0833 26.0833Z" stroke="white" stroke-width="1.83333" stroke-linecap="round" stroke-linejoin="round"/>
</g>
</svg>