<svg width="40" height="40" viewBox="0 0 40 40" fill="none" xmlns="http://www.w3.org/2000/svg">
<rect x="0" y="0" width="40" height="40" rx="9" fill="#7C51D8"/>
<g transform="translate(-8, -4)">
<path d="M35.3667 17.8412C34.9411 17.4154 34.4357 17.0776 33.8795 16.8471C33.3233 16.6167 32.7271 16.498 32.1251 16.498C31.523 16.498 30.9268 16.6167 30.3706 16.8471C29.8144 17.0776 29.309 17.4154 28.8834 17.8412L28.0001 18.7246L27.1167 17.8412C26.257 16.9815 25.0909 16.4985 23.8751 16.4985C22.6592 16.4985 21.4931 16.9815 20.6334 17.8412C19.7736 18.701 19.2906 19.867 19.2906 21.0829C19.2906 22.2988 19.7736 23.4648 20.6334 24.3246L21.5167 25.2079L28.0001 31.6912L34.4834 25.2079L35.3667 24.3246C35.7926 23.8989 36.1304 23.3936 36.3608 22.8374C36.5913 22.2811 36.7099 21.685 36.7099 21.0829C36.7099 20.4808 36.5913 19.8847 36.3608 19.3284C36.1304 18.7722 35.7926 18.2669 35.3667 17.8412Z" stroke="white" stroke-width="1.83333" stroke-linecap="round" stroke-linejoin="round"/>
</g>
</svg>