<svg width="18" height="18" viewBox="0 0 18 18" fill="none" xmlns="http://www.w3.org/2000/svg">
<path d="M7.125 2.25H3.375C2.75368 2.25 2.25 2.75368 2.25 3.375V7.125C2.25 7.74632 2.75368 8.25 3.375 8.25H7.125C7.74632 8.25 8.25 7.74632 8.25 7.125V3.375C8.25 2.75368 7.74632 2.25 7.125 2.25Z" stroke="white" stroke-width="1.875"/>
<path d="M14.625 2.25H10.875C10.2537 2.25 9.75 2.75368 9.75 3.375V7.125C9.75 7.74632 10.2537 8.25 10.875 8.25H14.625C15.2463 8.25 15.75 7.74632 15.75 7.125V3.375C15.75 2.75368 15.2463 2.25 14.625 2.25Z" stroke="white" stroke-width="1.875"/>
<path d="M7.125 9.75H3.375C2.75368 9.75 2.25 10.2537 2.25 10.875V14.625C2.25 15.2463 2.75368 15.75 3.375 15.75H7.125C7.74632 15.75 8.25 15.2463 8.25 14.625V10.875C8.25 10.2537 7.74632 9.75 7.125 9.75Z" stroke="white" stroke-width="1.875"/>
<path d="M14.625 9.75H10.875C10.2537 9.75 9.75 10.2537 9.75 10.875V14.625C9.75 15.2463 10.2537 15.75 10.875 15.75H14.625C15.2463 15.75 15.75 15.2463 15.75 14.625V10.875C15.75 10.2537 15.2463 9.75 14.625 9.75Z" stroke="white" stroke-width="1.875"/>
</svg>
