<svg xmlns="http://www.w3.org/2000/svg" width="36" height="36" viewBox="0 0 36 36" fill="none">
  <rect width="36" height="36" rx="8" fill="#F6FFED"/>
  <path d="M10 9.5H26C27.1 9.5 28 10.4 28 11.5V20.5C28 21.6 27.1 22.5 26 22.5H19L14 26.5V22.5H10C8.9 22.5 8 21.6 8 20.5V11.5C8 10.4 8.9 9.5 10 9.5Z" fill="#52C41A"/>
  <path d="M14.2998 15C15.0177 15 15.5995 15.5819 15.5996 16.2998C15.5996 17.0178 15.0178 17.5996 14.2998 17.5996C13.5819 17.5995 13 17.0177 13 16.2998C13.0001 15.582 13.582 15.0001 14.2998 15ZM18.2998 15C19.0177 15 19.5995 15.5819 19.5996 16.2998C19.5996 17.0178 19.0178 17.5996 18.2998 17.5996C17.5819 17.5995 17 17.0177 17 16.2998C17.0001 15.582 17.582 15.0001 18.2998 15ZM22.2998 15C23.0177 15 23.5995 15.5819 23.5996 16.2998C23.5996 17.0178 23.0178 17.5996 22.2998 17.5996C21.5819 17.5995 21 17.0177 21 16.2998C21.0001 15.582 21.582 15.0001 22.2998 15Z" fill="white"/>
</svg>