<svg xmlns="http://www.w3.org/2000/svg" viewBox="0 0 1000 1850">
  <title>私信AI自动回复 - 交互泳道图</title>
  <defs>
    <marker id="arrowhead" markerWidth="10" markerHeight="7" refX="9" refY="3.5" orient="auto">
      <polygon points="0 0, 10 3.5, 0 7" fill="#666"/>
    </marker>
    <marker id="arrowhead-success" markerWidth="10" markerHeight="7" refX="9" refY="3.5" orient="auto">
      <polygon points="0 0, 10 3.5, 0 7" fill="#52c41a"/>
    </marker>
  </defs>

  <rect width="1000" height="1850" fill="#fafafa"/>
  <text x="500" y="25" text-anchor="middle" font-size="16" font-weight="bold" fill="#333">私信AI自动回复 - 交互泳道图</text>

  <!-- 泳道 -->
  <rect x="10" y="45" width="160" height="1795" fill="#e6f7ff" stroke="#1890ff" stroke-width="2"/>
  <text x="90" y="65" text-anchor="middle" font-size="12" font-weight="bold" fill="#1890ff">用户</text>

  <rect x="180" y="45" width="280" height="1795" fill="#f6ffed" stroke="#52c41a" stroke-width="2"/>
  <text x="320" y="65" text-anchor="middle" font-size="12" font-weight="bold" fill="#52c41a">前端组件</text>

  <rect x="470" y="45" width="240" height="1795" fill="#fff7e6" stroke="#fa8c16" stroke-width="2"/>
  <text x="590" y="65" text-anchor="middle" font-size="12" font-weight="bold" fill="#fa8c16">后端 API</text>

  <rect x="720" y="45" width="270" height="1795" fill="#f9f0ff" stroke="#722ed1" stroke-width="2"/>
  <text x="855" y="65" text-anchor="middle" font-size="12" font-weight="bold" fill="#722ed1">状态管理</text>

  <!-- ========== A. 页面加载 ========== -->
  <line x1="10" y1="90" x2="990" y2="90" stroke="#d9d9d9" stroke-width="1" stroke-dasharray="5,5"/>
  <text x="15" y="85" font-size="11" fill="#8c8c8c">A. 页面加载</text>

  <circle cx="90" cy="120" r="18" fill="#1890ff" stroke="#096dd9" stroke-width="2"/>
  <text x="90" y="125" text-anchor="middle" font-size="10" fill="white">1</text>
  <rect x="200" y="105" width="130" height="30" rx="5" fill="#b7eb8f" stroke="#52c41a" stroke-width="2"/>
  <text x="265" y="125" text-anchor="middle" font-size="10">MessageReplyPage</text>
  <line x1="108" y1="120" x2="200" y2="120" stroke="#666" stroke-width="1.5" marker-end="url(#arrowhead)"/>

  <circle cx="90" cy="165" r="18" fill="#fa8c16" stroke="#d48806" stroke-width="2"/>
  <text x="90" y="170" text-anchor="middle" font-size="10" fill="white">2</text>
  <rect x="490" y="150" width="180" height="30" rx="5" fill="#ffe58f" stroke="#fa8c16" stroke-width="2"/>
  <text x="580" y="170" text-anchor="middle" font-size="10">GET /api/v1/accounts</text>
  <line x1="265" y1="135" x2="490" y2="165" stroke="#666" stroke-width="1.5" marker-end="url(#arrowhead)"/>

  <circle cx="90" cy="210" r="18" fill="#52c41a" stroke="#389e0d" stroke-width="2"/>
  <text x="90" y="215" text-anchor="middle" font-size="10" fill="white">3</text>
  <rect x="200" y="195" width="130" height="30" rx="5" fill="#b7eb8f" stroke="#52c41a" stroke-width="2"/>
  <text x="265" y="215" text-anchor="middle" font-size="10">AccountSelector</text>
  <line x1="580" y1="180" x2="320" y2="210" stroke="#52c41a" stroke-width="1.5" marker-end="url(#arrowhead-success)"/>

  <!-- ========== B. 账号选择 ========== -->
  <line x1="10" y1="280" x2="990" y2="280" stroke="#d9d9d9" stroke-width="1" stroke-dasharray="5,5"/>
  <text x="15" y="275" font-size="11" fill="#8c8c8c">B. 账号选择</text>

  <circle cx="90" cy="310" r="18" fill="#1890ff" stroke="#096dd9" stroke-width="2"/>
  <text x="90" y="315" text-anchor="middle" font-size="10" fill="white">1</text>
  <rect x="200" y="295" width="120" height="30" rx="5" fill="#ffccc7" stroke="#ff4d4f" stroke-width="2"/>
  <text x="260" y="315" text-anchor="middle" font-size="10">点击账号卡片</text>
  <line x1="108" y1="310" x2="200" y2="310" stroke="#666" stroke-width="1.5" marker-end="url(#arrowhead)"/>

  <circle cx="90" cy="355" r="18" fill="#d9d7fb" stroke="#722ed1" stroke-width="2"/>
  <text x="90" y="360" text-anchor="middle" font-size="10" fill="white">2</text>
  <rect x="200" y="340" width="120" height="30" rx="5" fill="#d9d7fb" stroke="#722ed1" stroke-width="2"/>
  <text x="260" y="360" text-anchor="middle" font-size="10">切换选中状态</text>
  <line x1="260" y1="325" x2="260" y2="340" stroke="#666" stroke-width="1.5" marker-end="url(#arrowhead)"/>

  <!-- ========== C. 设置抓取频率 ========== -->
  <line x1="10" y1="420" x2="990" y2="420" stroke="#d9d9d9" stroke-width="1" stroke-dasharray="5,5"/>
  <text x="15" y="415" font-size="11" fill="#8c8c8c">C. 设置抓取频率</text>

  <circle cx="90" cy="450" r="18" fill="#1890ff" stroke="#096dd9" stroke-width="2"/>
  <text x="90" y="455" text-anchor="middle" font-size="10" fill="white">1</text>
  <rect x="200" y="435" width="120" height="30" rx="5" fill="#ffccc7" stroke="#ff4d4f" stroke-width="2"/>
  <text x="260" y="455" text-anchor="middle" font-size="10">选择频率</text>
  <line x1="108" y1="450" x2="200" y2="450" stroke="#666" stroke-width="1.5" marker-end="url(#arrowhead)"/>

  <circle cx="90" cy="495" r="18" fill="#fa8c16" stroke="#d48806" stroke-width="2"/>
  <text x="90" y="500" text-anchor="middle" font-size="10" fill="white">2</text>
  <rect x="490" y="480" width="180" height="30" rx="5" fill="#ffe58f" stroke="#fa8c16" stroke-width="2"/>
  <text x="580" y="500" text-anchor="middle" font-size="10">PUT /api/v1/ai-message/fetch-settings</text>
  <line x1="260" y1="465" x2="490" y2="495" stroke="#666" stroke-width="1.5" marker-end="url(#arrowhead)"/>

  <!-- ========== D. 立即抓取 ========== -->
  <line x1="10" y1="560" x2="990" y2="560" stroke="#d9d9d9" stroke-width="1" stroke-dasharray="5,5"/>
  <text x="15" y="555" font-size="11" fill="#8c8c8c">D. 立即抓取</text>

  <circle cx="90" cy="590" r="18" fill="#1890ff" stroke="#096dd9" stroke-width="2"/>
  <text x="90" y="595" text-anchor="middle" font-size="10" fill="white">1</text>
  <rect x="200" y="575" width="120" height="30" rx="5" fill="#ffccc7" stroke="#ff4d4f" stroke-width="2"/>
  <text x="260" y="595" text-anchor="middle" font-size="10">点击立即抓取</text>
  <line x1="108" y1="590" x2="200" y2="590" stroke="#666" stroke-width="1.5" marker-end="url(#arrowhead)"/>

  <circle cx="90" cy="635" r="18" fill="#fa8c16" stroke="#d48806" stroke-width="2"/>
  <text x="90" y="640" text-anchor="middle" font-size="10" fill="white">2</text>
  <rect x="490" y="620" width="160" height="30" rx="5" fill="#ffe58f" stroke="#fa8c16" stroke-width="2"/>
  <text x="570" y="640" text-anchor="middle" font-size="10">POST /api/v1/ai-message/fetch</text>
  <line x1="260" y1="605" x2="490" y2="635" stroke="#666" stroke-width="1.5" marker-end="url(#arrowhead)"/>

  <circle cx="90" cy="680" r="18" fill="#52c41a" stroke="#389e0d" stroke-width="2"/>
  <text x="90" y="685" text-anchor="middle" font-size="10" fill="white">3</text>
  <rect x="200" y="665" width="120" height="30" rx="5" fill="#b7eb8f" stroke="#52c41a" stroke-width="2"/>
  <text x="260" y="685" text-anchor="middle" font-size="10">启动60秒CD</text>
  <line x1="570" y1="650" x2="320" y2="680" stroke="#52c41a" stroke-width="1.5" marker-end="url(#arrowhead-success)"/>

  <!-- ========== E. 自动回复开关 ========== -->
  <line x1="10" y1="750" x2="990" y2="750" stroke="#d9d9d9" stroke-width="1" stroke-dasharray="5,5"/>
  <text x="15" y="745" font-size="11" fill="#8c8c8c">E. 自动回复开关</text>

  <circle cx="90" cy="780" r="18" fill="#1890ff" stroke="#096dd9" stroke-width="2"/>
  <text x="90" y="785" text-anchor="middle" font-size="10" fill="white">1</text>
  <rect x="200" y="765" width="120" height="30" rx="5" fill="#ffccc7" stroke="#ff4d4f" stroke-width="2"/>
  <text x="260" y="785" text-anchor="middle" font-size="10">切换开关</text>
  <line x1="108" y1="780" x2="200" y2="780" stroke="#666" stroke-width="1.5" marker-end="url(#arrowhead)"/>

  <circle cx="90" cy="825" r="18" fill="#fa8c16" stroke="#d48806" stroke-width="2"/>
  <text x="90" y="830" text-anchor="middle" font-size="10" fill="white">2</text>
  <rect x="490" y="810" width="180" height="30" rx="5" fill="#ffe58f" stroke="#fa8c16" stroke-width="2"/>
  <text x="580" y="830" text-anchor="middle" font-size="10">PUT /api/v1/ai-message/auto-reply-settings</text>
  <line x1="260" y1="795" x2="490" y2="825" stroke="#666" stroke-width="1.5" marker-end="url(#arrowhead)"/>

  <!-- ========== F. 新增分类规则 ========== -->
  <line x1="10" y1="900" x2="990" y2="900" stroke="#d9d9d9" stroke-width="1" stroke-dasharray="5,5"/>
  <text x="15" y="895" font-size="11" fill="#8c8c8c">F. 新增分类规则</text>

  <circle cx="90" cy="930" r="18" fill="#1890ff" stroke="#096dd9" stroke-width="2"/>
  <text x="90" y="935" text-anchor="middle" font-size="10" fill="white">1</text>
  <rect x="200" y="915" width="120" height="30" rx="5" fill="#ffccc7" stroke="#ff4d4f" stroke-width="2"/>
  <text x="260" y="935" text-anchor="middle" font-size="10">点击新增</text>
  <line x1="108" y1="930" x2="200" y2="930" stroke="#666" stroke-width="1.5" marker-end="url(#arrowhead)"/>

  <circle cx="90" cy="975" r="18" fill="#52c41a" stroke="#389e0d" stroke-width="2"/>
  <text x="90" y="980" text-anchor="middle" font-size="10" fill="white">2</text>
  <rect x="200" y="960" width="150" height="30" rx="5" fill="#b7eb8f" stroke="#52c41a" stroke-width="2"/>
  <text x="275" y="980" text-anchor="middle" font-size="10">AddClassificationModal</text>
  <line x1="260" y1="945" x2="260" y2="960" stroke="#666" stroke-width="1.5" marker-end="url(#arrowhead)"/>

  <circle cx="90" cy="1020" r="18" fill="#fa8c16" stroke="#d48806" stroke-width="2"/>
  <text x="90" y="1025" text-anchor="middle" font-size="10" fill="white">3</text>
  <rect x="490" y="1005" width="180" height="30" rx="5" fill="#ffe58f" stroke="#fa8c16" stroke-width="2"/>
  <text x="580" y="1025" text-anchor="middle" font-size="10">POST /api/v1/ai-message/classification-rules</text>
  <line x1="275" y1="990" x2="490" y2="1020" stroke="#666" stroke-width="1.5" marker-end="url(#arrowhead)"/>

  <!-- ========== G. 编辑分类规则 ========== -->
  <line x1="10" y1="1090" x2="990" y2="1090" stroke="#d9d9d9" stroke-width="1" stroke-dasharray="5,5"/>
  <text x="15" y="1085" font-size="11" fill="#8c8c8c">G. 编辑分类规则</text>

  <circle cx="90" cy="1120" r="18" fill="#1890ff" stroke="#096dd9" stroke-width="2"/>
  <text x="90" y="1125" text-anchor="middle" font-size="10" fill="white">1</text>
  <rect x="200" y="1105" width="120" height="30" rx="5" fill="#ffccc7" stroke="#ff4d4f" stroke-width="2"/>
  <text x="260" y="1125" text-anchor="middle" font-size="10">点击编辑</text>
  <line x1="108" y1="1120" x2="200" y2="1120" stroke="#666" stroke-width="1.5" marker-end="url(#arrowhead)"/>

  <circle cx="90" cy="1165" r="18" fill="#52c41a" stroke="#389e0d" stroke-width="2"/>
  <text x="90" y="1170" text-anchor="middle" font-size="10" fill="white">2</text>
  <rect x="200" y="1150" width="150" height="30" rx="5" fill="#b7eb8f" stroke="#52c41a" stroke-width="2"/>
  <text x="275" y="1170" text-anchor="middle" font-size="10">EditClassificationModal</text>
  <line x1="260" y1="1135" x2="260" y2="1150" stroke="#666" stroke-width="1.5" marker-end="url(#arrowhead)"/>

  <circle cx="90" cy="1210" r="18" fill="#fa8c16" stroke="#d48806" stroke-width="2"/>
  <text x="90" y="1215" text-anchor="middle" font-size="10" fill="white">3</text>
  <rect x="490" y="1195" width="180" height="30" rx="5" fill="#ffe58f" stroke="#fa8c16" stroke-width="2"/>
  <text x="580" y="1215" text-anchor="middle" font-size="10">PUT /api/v1/ai-message/classification-rules/{id}</text>
  <line x1="275" y1="1180" x2="490" y2="1210" stroke="#666" stroke-width="1.5" marker-end="url(#arrowhead)"/>

  <!-- ========== H. 手动回复私信 ========== -->
  <line x1="10" y1="1280" x2="990" y2="1280" stroke="#d9d9d9" stroke-width="1" stroke-dasharray="5,5"/>
  <text x="15" y="1275" font-size="11" fill="#8c8c8c">H. 手动回复私信</text>

  <circle cx="90" cy="1310" r="18" fill="#1890ff" stroke="#096dd9" stroke-width="2"/>
  <text x="90" y="1315" text-anchor="middle" font-size="10" fill="white">1</text>
  <rect x="200" y="1295" width="120" height="30" rx="5" fill="#ffccc7" stroke="#ff4d4f" stroke-width="2"/>
  <text x="260" y="1315" text-anchor="middle" font-size="10">点击手动回复</text>
  <line x1="108" y1="1310" x2="200" y2="1310" stroke="#666" stroke-width="1.5" marker-end="url(#arrowhead)"/>

  <circle cx="90" cy="1355" r="18" fill="#52c41a" stroke="#389e0d" stroke-width="2"/>
  <text x="90" y="1360" text-anchor="middle" font-size="10" fill="white">2</text>
  <rect x="200" y="1340" width="130" height="30" rx="5" fill="#b7eb8f" stroke="#52c41a" stroke-width="2"/>
  <text x="265" y="1360" text-anchor="middle" font-size="10">ManualReplyModal</text>
  <line x1="260" y1="1325" x2="260" y2="1340" stroke="#666" stroke-width="1.5" marker-end="url(#arrowhead)"/>

  <circle cx="90" cy="1400" r="18" fill="#fa8c16" stroke="#d48806" stroke-width="2"/>
  <text x="90" y="1405" text-anchor="middle" font-size="10" fill="white">3</text>
  <rect x="490" y="1385" width="160" height="30" rx="5" fill="#ffe58f" stroke="#fa8c16" stroke-width="2"/>
  <text x="570" y="1405" text-anchor="middle" font-size="10">POST /api/v1/ai-message/manual-reply</text>
  <line x1="265" y1="1370" x2="490" y2="1400" stroke="#666" stroke-width="1.5" marker-end="url(#arrowhead)"/>

  <!-- ========== I. 查看私信详情 ========== -->
  <line x1="10" y1="1470" x2="990" y2="1470" stroke="#d9d9d9" stroke-width="1" stroke-dasharray="5,5"/>
  <text x="15" y="1465" font-size="11" fill="#8c8c8c">I. 查看私信详情</text>

  <circle cx="90" cy="1500" r="18" fill="#1890ff" stroke="#096dd9" stroke-width="2"/>
  <text x="90" y="1505" text-anchor="middle" font-size="10" fill="white">1</text>
  <rect x="200" y="1485" width="120" height="30" rx="5" fill="#ffccc7" stroke="#ff4d4f" stroke-width="2"/>
  <text x="260" y="1505" text-anchor="middle" font-size="10">点击查看详情</text>
  <line x1="108" y1="1500" x2="200" y2="1500" stroke="#666" stroke-width="1.5" marker-end="url(#arrowhead)"/>

  <circle cx="90" cy="1545" r="18" fill="#52c41a" stroke="#389e0d" stroke-width="2"/>
  <text x="90" y="1550" text-anchor="middle" font-size="10" fill="white">2</text>
  <rect x="200" y="1530" width="140" height="30" rx="5" fill="#b7eb8f" stroke="#52c41a" stroke-width="2"/>
  <text x="270" y="1550" text-anchor="middle" font-size="10">MessageDetailModal</text>
  <line x1="260" y1="1515" x2="260" y2="1530" stroke="#666" stroke-width="1.5" marker-end="url(#arrowhead)"/>

  <circle cx="90" cy="1590" r="18" fill="#fa8c16" stroke="#d48806" stroke-width="2"/>
  <text x="90" y="1595" text-anchor="middle" font-size="10" fill="white">3</text>
  <rect x="490" y="1575" width="140" height="30" rx="5" fill="#ffe58f" stroke="#fa8c16" stroke-width="2"/>
  <text x="560" y="1595" text-anchor="middle" font-size="10">GET /api/v1/ai-message/{id}</text>
  <line x1="270" y1="1560" x2="490" y2="1590" stroke="#666" stroke-width="1.5" marker-end="url(#arrowhead)"/>

  <!-- ========== J. 按账号筛选待处理私信 ========== -->
  <line x1="10" y1="1660" x2="990" y2="1660" stroke="#d9d9d9" stroke-width="1" stroke-dasharray="5,5"/>
  <text x="15" y="1655" font-size="11" fill="#8c8c8c">J. 按账号筛选待处理私信</text>

  <circle cx="90" cy="1690" r="18" fill="#1890ff" stroke="#096dd9" stroke-width="2"/>
  <text x="90" y="1695" text-anchor="middle" font-size="10" fill="white">1</text>
  <rect x="200" y="1675" width="130" height="30" rx="5" fill="#ffccc7" stroke="#ff4d4f" stroke-width="2"/>
  <text x="265" y="1695" text-anchor="middle" font-size="10">AccountSelector</text>
  <line x1="108" y1="1690" x2="200" y2="1690" stroke="#666" stroke-width="1.5" marker-end="url(#arrowhead)"/>

  <circle cx="90" cy="1735" r="18" fill="#d9d7fb" stroke="#722ed1" stroke-width="2"/>
  <text x="90" y="1740" text-anchor="middle" font-size="10" fill="white">2</text>
  <rect x="200" y="1720" width="180" height="30" rx="5" fill="#d9d7fb" stroke="#722ed1" stroke-width="2"/>
  <text x="290" y="1740" text-anchor="middle" font-size="10">setPrimaryAccountId</text>
  <line x1="200" y1="1705" x2="200" y2="1720" stroke="#666" stroke-width="1.5" marker-end="url(#arrowhead)"/>

  <circle cx="90" cy="1780" r="18" fill="#52c41a" stroke="#389e0d" stroke-width="2"/>
  <text x="90" y="1785" text-anchor="middle" font-size="10" fill="white">3</text>
  <rect x="200" y="1765" width="150" height="30" rx="5" fill="#b7eb8f" stroke="#52c41a" stroke-width="2"/>
  <text x="275" y="1785" text-anchor="middle" font-size="10">PendingMessageCard</text>
  <line x1="200" y1="1750" x2="200" y2="1765" stroke="#666" stroke-width="1.5" marker-end="url(#arrowhead)"/>

  <circle cx="350" cy="1780" r="18" fill="#fa8c16" stroke="#d48806" stroke-width="2"/>
  <text x="350" y="1785" text-anchor="middle" font-size="10" fill="white">4</text>
  <rect x="490" y="1765" width="200" height="30" rx="5" fill="#ffe58f" stroke="#fa8c16" stroke-width="2"/>
  <text x="590" y="1785" text-anchor="middle" font-size="10">GET /pending?accountId={id}</text>
  <line x1="275" y1="1780" x2="490" y2="1780" stroke="#666" stroke-width="1.5" marker-end="url(#arrowhead)"/>

  <!-- ========== 图例 ========== -->
  <rect x="750" y="1800" width="230" height="40" fill="#fafafa" stroke="#d9d9d9" rx="5"/>
  <text x="760" y="1818" font-size="10" font-weight="bold">图例</text>
  <circle cx="775" cy="1835" r="8" fill="#1890ff" stroke="#096dd9" stroke-width="2"/>
  <text x="790" y="1838" font-size="9">用户操作</text>
  <circle cx="870" cy="1835" r="8" fill="#52c41a" stroke="#389e0d" stroke-width="2"/>
  <text x="885" y="1838" font-size="9">前端成功</text>
</svg>
