<svg xmlns="http://www.w3.org/2000/svg" viewBox="0 0 1000 1600">
  <title>内容优化与重发布 - 交互泳道图</title>
  <defs>
    <marker id="arrowhead" markerWidth="10" markerHeight="7" refX="9" refY="3.5" orient="auto">
      <polygon points="0 0, 10 3.5, 0 7" fill="#666"/>
    </marker>
    <marker id="arrowhead-success" markerWidth="10" markerHeight="7" refX="9" refY="3.5" orient="auto">
      <polygon points="0 0, 10 3.5, 0 7" fill="#52c41a"/>
    </marker>
    <marker id="arrowhead-error" markerWidth="10" markerHeight="7" refX="9" refY="3.5" orient="auto">
      <polygon points="0 0, 10 3.5, 0 7" fill="#ff4d4f"/>
    </marker>
  </defs>

  <rect width="1000" height="1600" fill="#fafafa"/>
  <text x="500" y="25" text-anchor="middle" font-size="16" font-weight="bold" fill="#333">内容优化与重发布 - 交互泳道图</text>

  <!-- 泳道 -->
  <rect x="10" y="45" width="160" height="1545" fill="#e6f7ff" stroke="#1890ff" stroke-width="2"/>
  <text x="90" y="65" text-anchor="middle" font-size="12" font-weight="bold" fill="#1890ff">用户</text>

  <rect x="180" y="45" width="280" height="1545" fill="#f6ffed" stroke="#52c41a" stroke-width="2"/>
  <text x="320" y="65" text-anchor="middle" font-size="12" font-weight="bold" fill="#52c41a">前端组件</text>

  <rect x="470" y="45" width="240" height="1545" fill="#fff7e6" stroke="#fa8c16" stroke-width="2"/>
  <text x="590" y="65" text-anchor="middle" font-size="12" font-weight="bold" fill="#fa8c16">后端 API</text>

  <rect x="720" y="45" width="270" height="1545" fill="#f9f0ff" stroke="#722ed1" stroke-width="2"/>
  <text x="855" y="65" text-anchor="middle" font-size="12" font-weight="bold" fill="#722ed1">状态管理</text>

  <!-- ========== A. 页面加载 ========== -->
  <line x1="10" y1="90" x2="990" y2="90" stroke="#d9d9d9" stroke-width="1" stroke-dasharray="5,5"/>
  <text x="15" y="85" font-size="11" fill="#8c8c8c">A. 页面加载</text>

  <circle cx="90" cy="120" r="18" fill="#1890ff" stroke="#096dd9" stroke-width="2"/>
  <text x="90" y="125" text-anchor="middle" font-size="10" fill="white">1</text>
  <rect x="200" y="105" width="140" height="30" rx="5" fill="#b7eb8f" stroke="#52c41a" stroke-width="2"/>
  <text x="270" y="125" text-anchor="middle" font-size="10">ContentOptimizePage</text>
  <line x1="108" y1="120" x2="200" y2="120" stroke="#666" stroke-width="1.5" marker-end="url(#arrowhead)"/>

  <circle cx="90" cy="165" r="18" fill="#52c41a" stroke="#389e0d" stroke-width="2"/>
  <text x="90" y="170" text-anchor="middle" font-size="10" fill="white">2</text>
  <rect x="200" y="150" width="120" height="30" rx="5" fill="#b7eb8f" stroke="#52c41a" stroke-width="2"/>
  <text x="260" y="170" text-anchor="middle" font-size="10">ContentTable</text>
  <line x1="270" y1="135" x2="270" y2="150" stroke="#666" stroke-width="1.5" marker-end="url(#arrowhead)"/>

  <circle cx="90" cy="210" r="18" fill="#fa8c16" stroke="#d48806" stroke-width="2"/>
  <text x="90" y="215" text-anchor="middle" font-size="10" fill="white">3</text>
  <rect x="490" y="195" width="200" height="30" rx="5" fill="#ffe58f" stroke="#fa8c16" stroke-width="2"/>
  <text x="590" y="215" text-anchor="middle" font-size="10">GET /api/v1/ai-assistant/content-optimize/low-data</text>
  <line x1="270" y1="180" x2="490" y2="210" stroke="#666" stroke-width="1.5" marker-end="url(#arrowhead)"/>

  <circle cx="90" cy="255" r="18" fill="#52c41a" stroke="#389e0d" stroke-width="2"/>
  <text x="90" y="260" text-anchor="middle" font-size="10" fill="white">4</text>
  <rect x="200" y="240" width="120" height="30" rx="5" fill="#b7eb8f" stroke="#52c41a" stroke-width="2"/>
  <text x="260" y="260" text-anchor="middle" font-size="10">渲染列表</text>
  <line x1="590" y1="225" x2="320" y2="255" stroke="#52c41a" stroke-width="1.5" marker-end="url(#arrowhead-success)"/>

  <!-- ========== B. 阈值设置 ========== -->
  <line x1="10" y1="320" x2="990" y2="320" stroke="#d9d9d9" stroke-width="1" stroke-dasharray="5,5"/>
  <text x="15" y="315" font-size="11" fill="#8c8c8c">B. 阈值设置</text>

  <circle cx="90" cy="350" r="18" fill="#1890ff" stroke="#096dd9" stroke-width="2"/>
  <text x="90" y="355" text-anchor="middle" font-size="10" fill="white">1</text>
  <rect x="200" y="335" width="120" height="30" rx="5" fill="#ffccc7" stroke="#ff4d4f" stroke-width="2"/>
  <text x="260" y="355" text-anchor="middle" font-size="10">输入阈值</text>
  <line x1="108" y1="350" x2="200" y2="350" stroke="#666" stroke-width="1.5" marker-end="url(#arrowhead)"/>

  <circle cx="90" cy="395" r="18" fill="#52c41a" stroke="#389e0d" stroke-width="2"/>
  <text x="90" y="400" text-anchor="middle" font-size="10" fill="white">2</text>
  <rect x="200" y="380" width="120" height="30" rx="5" fill="#b7eb8f" stroke="#52c41a" stroke-width="2"/>
  <text x="260" y="400" text-anchor="middle" font-size="10">ThresholdForm</text>
  <line x1="260" y1="365" x2="260" y2="380" stroke="#666" stroke-width="1.5" marker-end="url(#arrowhead)"/>

  <!-- ========== C. AI优化触发 ========== -->
  <line x1="10" y1="460" x2="990" y2="460" stroke="#d9d9d9" stroke-width="1" stroke-dasharray="5,5"/>
  <text x="15" y="455" font-size="11" fill="#8c8c8c">C. AI优化触发</text>

  <circle cx="90" cy="490" r="18" fill="#1890ff" stroke="#096dd9" stroke-width="2"/>
  <text x="90" y="495" text-anchor="middle" font-size="10" fill="white">1</text>
  <rect x="200" y="475" width="120" height="30" rx="5" fill="#ffccc7" stroke="#ff4d4f" stroke-width="2"/>
  <text x="260" y="495" text-anchor="middle" font-size="10">点击AI优化</text>
  <line x1="108" y1="490" x2="200" y2="490" stroke="#666" stroke-width="1.5" marker-end="url(#arrowhead)"/>

  <circle cx="90" cy="535" r="18" fill="#52c41a" stroke="#389e0d" stroke-width="2"/>
  <text x="90" y="540" text-anchor="middle" font-size="10" fill="white">2</text>
  <rect x="200" y="520" width="140" height="30" rx="5" fill="#b7eb8f" stroke="#52c41a" stroke-width="2"/>
  <text x="270" y="540" text-anchor="middle" font-size="10">OptimizeSuggestionCard</text>
  <line x1="260" y1="505" x2="260" y2="520" stroke="#666" stroke-width="1.5" marker-end="url(#arrowhead)"/>

  <circle cx="90" cy="580" r="18" fill="#fa8c16" stroke="#d48806" stroke-width="2"/>
  <text x="90" y="585" text-anchor="middle" font-size="10" fill="white">3</text>
  <rect x="490" y="565" width="180" height="30" rx="5" fill="#ffe58f" stroke="#fa8c16" stroke-width="2"/>
  <text x="580" y="585" text-anchor="middle" font-size="10">POST /api/v1/ai-assistant/content-optimize/{contentId}/optimize</text>
  <line x1="270" y1="550" x2="490" y2="580" stroke="#666" stroke-width="1.5" marker-end="url(#arrowhead)"/>

  <circle cx="90" cy="625" r="18" fill="#52c41a" stroke="#389e0d" stroke-width="2"/>
  <text x="90" y="630" text-anchor="middle" font-size="10" fill="white">4</text>
  <rect x="200" y="610" width="140" height="30" rx="5" fill="#b7eb8f" stroke="#52c41a" stroke-width="2"/>
  <text x="270" y="630" text-anchor="middle" font-size="10">显示优化建议卡片</text>
  <line x1="580" y1="595" x2="320" y2="625" stroke="#52c41a" stroke-width="1.5" marker-end="url(#arrowhead-success)"/>

  <!-- ========== D. 敏感词检测 ========== -->
  <line x1="10" y1="700" x2="990" y2="700" stroke="#d9d9d9" stroke-width="1" stroke-dasharray="5,5"/>
  <text x="15" y="695" font-size="11" fill="#8c8c8c">D. 敏感词检测</text>

  <circle cx="90" cy="730" r="18" fill="#d9d7fb" stroke="#722ed1" stroke-width="2"/>
  <text x="90" y="735" text-anchor="middle" font-size="10" fill="white">1</text>
  <rect x="200" y="715" width="140" height="30" rx="5" fill="#d9d7fb" stroke="#722ed1" stroke-width="2"/>
  <text x="270" y="735" text-anchor="middle" font-size="10">检测敏感词</text>
  <line x1="270" y1="700" x2="270" y2="715" stroke="#666" stroke-width="1.5" marker-end="url(#arrowhead)"/>

  <circle cx="90" cy="775" r="18" fill="#52c41a" stroke="#389e0d" stroke-width="2"/>
  <text x="90" y="780" text-anchor="middle" font-size="10" fill="white">2</text>
  <rect x="200" y="760" width="120" height="30" rx="5" fill="#b7eb8f" stroke="#52c41a" stroke-width="2"/>
  <text x="260" y="780" text-anchor="middle" font-size="10">显示敏感词警告</text>
  <line x1="270" y1="745" x2="270" y2="760" stroke="#666" stroke-width="1.5" marker-end="url(#arrowhead)"/>

  <!-- ========== E. 应用AI建议 ========== -->
  <line x1="10" y1="850" x2="990" y2="850" stroke="#d9d9d9" stroke-width="1" stroke-dasharray="5,5"/>
  <text x="15" y="845" font-size="11" fill="#8c8c8c">E. 应用AI建议</text>

  <circle cx="90" cy="880" r="18" fill="#1890ff" stroke="#096dd9" stroke-width="2"/>
  <text x="90" y="885" text-anchor="middle" font-size="10" fill="white">1</text>
  <rect x="200" y="865" width="120" height="30" rx="5" fill="#ffccc7" stroke="#ff4d4f" stroke-width="2"/>
  <text x="260" y="885" text-anchor="middle" font-size="10">点击应用</text>
  <line x1="108" y1="880" x2="200" y2="880" stroke="#666" stroke-width="1.5" marker-end="url(#arrowhead)"/>

  <circle cx="90" cy="925" r="18" fill="#fa8c16" stroke="#d48806" stroke-width="2"/>
  <text x="90" y="930" text-anchor="middle" font-size="10" fill="white">2</text>
  <rect x="490" y="910" width="180" height="30" rx="5" fill="#ffe58f" stroke="#fa8c16" stroke-width="2"/>
  <text x="580" y="930" text-anchor="middle" font-size="10">POST /api/v1/ai-assistant/content-optimize/{contentId}/apply</text>
  <line x1="260" y1="895" x2="490" y2="925" stroke="#666" stroke-width="1.5" marker-end="url(#arrowhead)"/>

  <circle cx="90" cy="970" r="18" fill="#52c41a" stroke="#389e0d" stroke-width="2"/>
  <text x="90" y="975" text-anchor="middle" font-size="10" fill="white">3</text>
  <rect x="200" y="955" width="130" height="30" rx="5" fill="#b7eb8f" stroke="#52c41a" stroke-width="2"/>
  <text x="265" y="975" text-anchor="middle" font-size="10">显示重发布配置</text>
  <line x1="580" y1="940" x2="320" y2="970" stroke="#52c41a" stroke-width="1.5" marker-end="url(#arrowhead-success)"/>

  <circle cx="90" cy="1015" r="18" fill="#d9d7fb" stroke="#722ed1" stroke-width="2"/>
  <text x="90" y="1020" text-anchor="middle" font-size="10" fill="white">4</text>
  <rect x="740" y="1000" width="120" height="30" rx="5" fill="#d9d7fb" stroke="#722ed1" stroke-width="2"/>
  <text x="800" y="1020" text-anchor="middle" font-size="10">状态: applied-pending</text>
  <line x1="265" y1="985" x2="740" y2="1015" stroke="#722ed1" stroke-width="1.5" marker-end="url(#arrowhead)"/>

  <!-- ========== F. 确认重发布 ========== -->
  <line x1="10" y1="1100" x2="990" y2="1100" stroke="#d9d9d9" stroke-width="1" stroke-dasharray="5,5"/>
  <text x="15" y="1095" font-size="11" fill="#8c8c8c">F. 确认重发布</text>

  <circle cx="90" cy="1130" r="18" fill="#1890ff" stroke="#096dd9" stroke-width="2"/>
  <text x="90" y="1135" text-anchor="middle" font-size="10" fill="white">1</text>
  <rect x="200" y="1115" width="120" height="30" rx="5" fill="#ffccc7" stroke="#ff4d4f" stroke-width="2"/>
  <text x="260" y="1135" text-anchor="middle" font-size="10">点击确认重发布</text>
  <line x1="108" y1="1130" x2="200" y2="1130" stroke="#666" stroke-width="1.5" marker-end="url(#arrowhead)"/>

  <circle cx="90" cy="1175" r="18" fill="#fa8c16" stroke="#d48806" stroke-width="2"/>
  <text x="90" y="1180" text-anchor="middle" font-size="10" fill="white">2</text>
  <rect x="490" y="1160" width="180" height="30" rx="5" fill="#ffe58f" stroke="#fa8c16" stroke-width="2"/>
  <text x="580" y="1180" text-anchor="middle" font-size="10">POST /api/v1/ai-assistant/content-optimize/republish</text>
  <line x1="260" y1="1145" x2="490" y2="1175" stroke="#666" stroke-width="1.5" marker-end="url(#arrowhead)"/>

  <circle cx="90" cy="1220" r="18" fill="#52c41a" stroke="#389e0d" stroke-width="2"/>
  <text x="90" y="1225" text-anchor="middle" font-size="10" fill="white">3</text>
  <rect x="200" y="1205" width="120" height="30" rx="5" fill="#b7eb8f" stroke="#52c41a" stroke-width="2"/>
  <text x="260" y="1225" text-anchor="middle" font-size="10">刷新列表</text>
  <line x1="580" y1="1190" x2="320" y2="1220" stroke="#52c41a" stroke-width="1.5" marker-end="url(#arrowhead-success)"/>

  <!-- ========== G. 跨平台标签限制提示 ========== -->
  <line x1="10" y1="1290" x2="990" y2="1290" stroke="#d9d9d9" stroke-width="1" stroke-dasharray="5,5"/>
  <text x="15" y="1285" font-size="11" fill="#8c8c8c">G. 跨平台标签限制提示</text>

  <circle cx="90" cy="1320" r="18" fill="#1890ff" stroke="#096dd9" stroke-width="2"/>
  <text x="90" y="1325" text-anchor="middle" font-size="10" fill="white">1</text>
  <rect x="200" y="1305" width="120" height="30" rx="5" fill="#ffccc7" stroke="#ff4d4f" stroke-width="2"/>
  <text x="260" y="1325" text-anchor="middle" font-size="10">选择目标平台</text>
  <line x1="108" y1="1320" x2="200" y2="1320" stroke="#666" stroke-width="1.5" marker-end="url(#arrowhead)"/>

  <circle cx="90" cy="1365" r="18" fill="#d9d7fb" stroke="#722ed1" stroke-width="2"/>
  <text x="90" y="1370" text-anchor="middle" font-size="10" fill="white">2</text>
  <rect x="200" y="1350" width="120" height="30" rx="5" fill="#d9d7fb" stroke="#722ed1" stroke-width="2"/>
  <text x="260" y="1370" text-anchor="middle" font-size="10">设置标签上限</text>
  <line x1="260" y1="1345" x2="260" y2="1350" stroke="#666" stroke-width="1.5" marker-end="url(#arrowhead)"/>

  <circle cx="90" cy="1410" r="18" fill="#52c41a" stroke="#389e0d" stroke-width="2"/>
  <text x="90" y="1415" text-anchor="middle" font-size="10" fill="white">3</text>
  <rect x="200" y="1395" width="120" height="30" rx="5" fill="#b7eb8f" stroke="#52c41a" stroke-width="2"/>
  <text x="260" y="1415" text-anchor="middle" font-size="10">显示限制提示</text>
  <line x1="260" y1="1380" x2="260" y2="1395" stroke="#666" stroke-width="1.5" marker-end="url(#arrowhead)"/>

  <!-- ========== H. 跳转到标签库 ========== -->
  <line x1="10" y1="1470" x2="990" y2="1470" stroke="#d9d9d9" stroke-width="1" stroke-dasharray="5,5"/>
  <text x="15" y="1465" font-size="11" fill="#8c8c8c">H. 跳转到标签库</text>

  <circle cx="90" cy="1500" r="18" fill="#1890ff" stroke="#096dd9" stroke-width="2"/>
  <text x="90" y="1505" text-anchor="middle" font-size="10" fill="white">1</text>
  <rect x="200" y="1485" width="120" height="30" rx="5" fill="#ffccc7" stroke="#ff4d4f" stroke-width="2"/>
  <text x="260" y="1505" text-anchor="middle" font-size="10">点击标签库</text>
  <line x1="108" y1="1500" x2="200" y2="1500" stroke="#666" stroke-width="1.5" marker-end="url(#arrowhead)"/>

  <circle cx="90" cy="1545" r="18" fill="#52c41a" stroke="#389e0d" stroke-width="2"/>
  <text x="90" y="1550" text-anchor="middle" font-size="10" fill="white">2</text>
  <rect x="200" y="1530" width="120" height="30" rx="5" fill="#b7eb8f" stroke="#52c41a" stroke-width="2"/>
  <text x="260" y="1550" text-anchor="middle" font-size="10">router.push</text>
  <line x1="260" y1="1515" x2="260" y2="1530" stroke="#666" stroke-width="1.5" marker-end="url(#arrowhead)"/>
  <text x="360" y="1550" font-size="10" fill="#666">→ /ai-assistant/tags</text>

  <!-- ========== 图例 ========== -->
  <rect x="750" y="1470" width="230" height="80" fill="#fafafa" stroke="#d9d9d9" rx="5"/>
  <text x="760" y="1488" font-size="10" font-weight="bold">图例</text>
  <circle cx="775" cy="1508" r="8" fill="#1890ff" stroke="#096dd9" stroke-width="2"/>
  <text x="790" y="1511" font-size="9">用户操作</text>
  <circle cx="775" cy="1533" r="8" fill="#52c41a" stroke="#389e0d" stroke-width="2"/>
  <text x="790" y="1536" font-size="9">前端成功</text>
  <line x1="820" y1="1508" x2="850" y2="1508" stroke="#666" stroke-width="1.5" marker-end="url(#arrowhead)"/>
  <text x="860" y="1511" font-size="9">正常流程</text>
  <line x1="820" y1="1533" x2="850" y2="1533" stroke="#52c41a" stroke-width="1.5" marker-end="url(#arrowhead-success)"/>
  <text x="860" y="1536" font-size="9">成功流程</text>
</svg>