<svg width="64" height="64" viewBox="0 0 64 64" fill="none" xmlns="http://www.w3.org/2000/svg">
<rect width="64" height="64" rx="12" fill="#F9F0FF"/>
<path d="M42 20H22C20.3431 20 19 21.3431 19 23V41C19 42.6569 20.3431 44 22 44H42C43.6569 44 45 42.6569 45 41V23C45 21.3431 43.6569 20 42 20Z" fill="#722ED1"/>
<path d="M23 38L28 32L33 35L39 29L43 38H23Z" fill="white"/>
<path d="M27 29.5C28.3807 29.5 29.5 28.3807 29.5 27C29.5 25.6193 28.3807 24.5 27 24.5C25.6193 24.5 24.5 25.6193 24.5 27C24.5 28.3807 25.6193 29.5 27 29.5Z" fill="white"/>
</svg>
